<svg xmlns="http://www.w3.org/2000/svg" width="600" height="400" viewBox="0 0 600 400"><rect width="100%" height="100%" fill="#DDDDDD"/><path fill="#999999" d="M185.795 158.89h9.23v65.79h-10.78v-42.5q0-2.55.27-5.5l-19.88 37.35q-1.41 2.69-4.32 2.69h-1.73q-2.91 0-4.32-2.69l-20.11-37.49q.13 1.5.22 2.96.09 1.45.09 2.68v42.5h-10.78v-65.79h9.24q.82 0 1.41.04.59.05 1.07.23.47.18.86.59t.75 1.09l19.7 36.54q.78 1.46 1.44 3 .66 1.55 1.29 3.19.64-1.69 1.32-3.26.69-1.56 1.46-3.02l19.43-36.45q.36-.68.77-1.09t.89-.59 1.07-.23q.59-.04 1.41-.04m46.77 53.73v-7.87q-4.87.23-8.19.84-3.32.62-5.32 1.57-2 .96-2.87 2.23-.86 1.28-.86 2.78 0 2.96 1.75 4.23t4.57 1.27q3.46 0 5.99-1.25 2.52-1.25 4.93-3.8m-23.75-24.52-2-3.6q8.05-7.37 19.38-7.37 4.1 0 7.33 1.34 3.23 1.35 5.46 3.74 2.23 2.38 3.39 5.71 1.16 3.32 1.16 7.28v29.48h-5.1q-1.59 0-2.46-.48-.86-.48-1.36-1.93l-1-3.37q-1.78 1.59-3.46 2.8t-3.5 2.02q-1.82.82-3.89 1.26-2.07.43-4.58.43-2.95 0-5.46-.8-2.5-.79-4.32-2.39-1.82-1.59-2.82-3.96-1-2.36-1-5.5 0-1.78.59-3.53t1.94-3.34q1.34-1.59 3.48-3 2.13-1.41 5.25-2.46t7.26-1.71 9.46-.79v-2.73q0-4.69-2-6.94t-5.78-2.25q-2.73 0-4.53.63-1.79.64-3.16 1.44-1.36.79-2.48 1.43-1.11.64-2.48.64-1.18 0-2-.62-.82-.61-1.32-1.43m55.01-8.06.77 3.69q1.42-1.41 2.98-2.62 1.57-1.2 3.33-2.04 1.75-.85 3.75-1.32 2-.48 4.37-.48 3.82 0 6.78 1.3 2.96 1.29 4.93 3.64 1.98 2.34 3.01 5.59 1.02 3.26 1.02 7.17v29.71h-11.24v-29.71q0-4.28-1.95-6.62-1.96-2.34-5.96-2.34-2.92 0-5.46 1.31-2.55 1.32-4.83 3.6v33.76h-11.24V178h6.87q2.19 0 2.87 2.04m66.25 32.58v-7.87q-4.87.23-8.19.84-3.32.62-5.32 1.57-2.01.96-2.87 2.23-.87 1.28-.87 2.78 0 2.96 1.76 4.23 1.75 1.27 4.57 1.27 3.46 0 5.98-1.25 2.53-1.25 4.94-3.8m-23.75-24.52-2-3.6q8.05-7.37 19.38-7.37 4.09 0 7.32 1.34 3.23 1.35 5.46 3.74 2.23 2.38 3.39 5.71 1.16 3.32 1.16 7.28v29.48h-5.09q-1.59 0-2.46-.48-.86-.48-1.36-1.93l-1-3.37q-1.78 1.59-3.46 2.8-1.69 1.21-3.51 2.02-1.82.82-3.89 1.26-2.07.43-4.57.43-2.96 0-5.46-.8-2.5-.79-4.32-2.39-1.82-1.59-2.82-3.96-1-2.36-1-5.5 0-1.78.59-3.53t1.93-3.34 3.48-3 5.26-2.46q3.11-1.05 7.25-1.71 4.15-.66 9.47-.79v-2.73q0-4.69-2-6.94-2.01-2.25-5.78-2.25-2.73 0-4.53.63-1.8.64-3.16 1.44l-2.48 1.43q-1.12.64-2.48.64-1.18 0-2-.62-.82-.61-1.32-1.43m62.33 12.1q2.1 0 3.64-.57 1.55-.57 2.57-1.57 1.03-1 1.55-2.41t.52-3.09q0-3.46-2.07-5.49-2.07-2.02-6.21-2.02t-6.21 2.02q-2.07 2.03-2.07 5.49 0 1.64.53 3.05.52 1.41 1.54 2.43 1.03 1.02 2.6 1.59t3.61.57m12.7 26.57q0-1.36-.82-2.23-.82-.86-2.23-1.34t-3.3-.7q-1.89-.23-4-.35-2.12-.11-4.37-.2t-4.39-.36q-1.87 1.04-3.03 2.45t-1.16 3.28q0 1.23.62 2.3.61 1.07 1.95 1.84t3.48 1.21q2.14.43 5.24.43 3.13 0 5.41-.48 2.27-.48 3.75-1.32t2.16-2q.69-1.16.69-2.53m-2.23-47.18h13.42v4.19q0 2-2.41 2.45l-4.19.78q.96 2.41.96 5.27 0 3.46-1.39 6.26t-3.84 4.76q-2.46 1.95-5.81 3.02-3.34 1.07-7.21 1.07-1.36 0-2.64-.14-1.27-.13-2.5-.36-2.18 1.32-2.18 2.96 0 1.41 1.29 2.07 1.3.66 3.44.93t4.87.34 5.59.3q2.87.22 5.6.79t4.87 1.8 3.43 3.34q1.3 2.12 1.3 5.44 0 3.1-1.52 6.01-1.53 2.91-4.42 5.19-2.89 2.27-7.09 3.66-4.21 1.39-9.58 1.39-5.28 0-9.19-1.03-3.92-1.02-6.51-2.73-2.59-1.7-3.87-3.93-1.27-2.23-1.27-4.65 0-3.27 1.98-5.48 1.98-2.2 5.44-3.52-1.87-.96-2.96-2.55t-1.09-4.19q0-1.04.38-2.16.39-1.11 1.14-2.21.75-1.09 1.89-2.07 1.14-.97 2.68-1.75-3.55-1.91-5.57-5.09-2.03-3.19-2.03-7.47 0-3.45 1.39-6.25t3.87-4.78 5.87-3.03q3.39-1.04 7.39-1.04 3.01 0 5.64.61 2.64.62 4.83 1.8m29.39 16.38h21.2q0-2.18-.61-4.12-.61-1.93-1.84-3.39-1.23-1.45-3.12-2.3-1.89-.84-4.39-.84-4.87 0-7.67 2.78-2.8 2.77-3.57 7.87m28.67 6.78h-28.9q.28 3.59 1.28 6.21t2.64 4.32q1.63 1.71 3.89 2.55 2.25.84 4.98.84t4.71-.63q1.98-.64 3.46-1.42 1.47-.77 2.59-1.41 1.11-.63 2.16-.63 1.41 0 2.09 1.04l3.23 4.1q-1.86 2.18-4.18 3.66t-4.85 2.37q-2.52.88-5.14 1.25-2.62.36-5.07.36-4.87 0-9.06-1.61-4.18-1.62-7.28-4.78-3.09-3.16-4.86-7.83-1.78-4.66-1.78-10.8 0-4.78 1.55-8.99 1.54-4.21 4.43-7.32 2.89-3.12 7.06-4.94 4.16-1.82 9.39-1.82 4.42 0 8.15 1.41t6.41 4.12q2.69 2.7 4.21 6.64t1.52 8.99q0 2.54-.54 3.43-.55.89-2.09.89m20.97-21.93.68 5.28q2.19-4.19 5.19-6.58t7.1-2.39q3.23 0 5.19 1.41l-.73 8.42q-.23.82-.66 1.16t-1.16.34q-.68 0-2.03-.23-1.34-.22-2.61-.22-1.87 0-3.32.54-1.46.55-2.62 1.57-1.16 1.03-2.05 2.48-.89 1.46-1.66 3.32v28.76h-11.24V178h6.6q1.73 0 2.41.61.68.62.91 2.21"/></svg>